<?xml version='1.0' encoding='utf-8'?>
<svg version="1.1" id="Layer_1" xmlns="http://www.w3.org/2000/svg" x="0px" y="0px"
     width="40px" height="40px" viewBox="0 0 40 40"
     enable-background="new 0 0 40 40">
    <path fill="#FFFFFF" d="M19.5,19.5 L19.5,0.0 A19.5,19.5 0, 0,1, 27.7257831252 1.81988427705 Z" stroke="black" stroke-width="1" transform="translate(0.5, 0.5)"/>
    <path fill="#FF0000" d="M19.5,19.5 L27.7257831252,1.81988427705 A19.5,19.5 0, 0,1, 38.8845567033 21.6187169267 Z" stroke="black" stroke-width="1" transform="translate(0.5, 0.5)"/>
    <path fill="#0000FF" d="M19.5,19.5 L38.8845567033,21.6187169267 A19.5,19.5 0, 0,1, 36.1816974262 29.5980676855 Z" stroke="black" stroke-width="1" transform="translate(0.5, 0.5)"/>
    <path fill="#FFFF00" d="M19.5,19.5 L36.1816974262,29.5980676855 A19.5,19.5 0, 0,1, 15.2876524715 38.539593701 Z" stroke="black" stroke-width="1" transform="translate(0.5, 0.5)"/>
    <path fill="#FF7F00" d="M19.5,19.5 L15.2876524715,38.539593701 A19.5,19.5 0, 0,1, 19.5 0.0 Z" stroke="black" stroke-width="1" transform="translate(0.5, 0.5)"/>
</svg>