<?xml version='1.0' encoding='utf-8'?>
<svg version="1.1" id="Layer_1" xmlns="http://www.w3.org/2000/svg" x="0px" y="0px"
     width="40px" height="40px" viewBox="0 0 40 40"
     enable-background="new 0 0 40 40">
    <path fill="#0000FF" d="M19.5,19.5 L19.5,0.0 A19.5,19.5 0, 0,1, 38.9168164378 21.2992330095 Z" stroke="black" stroke-width="1" transform="translate(0.5, 0.5)"/>
    <path fill="#FFFF00" d="M19.5,19.5 L38.9168164378,21.2992330095 A19.5,19.5 0, 0,1, 29.7654271761 36.0792341467 Z" stroke="black" stroke-width="1" transform="translate(0.5, 0.5)"/>
    <path fill="#964B00" d="M19.5,19.5 L29.7654271761,36.0792341467 A19.5,19.5 0, 0,1, 2.04431581858 28.1918979376 Z" stroke="black" stroke-width="1" transform="translate(0.5, 0.5)"/>
    <path fill="#800080" d="M19.5,19.5 L2.04431581858,28.1918979376 A19.5,19.5 0, 0,1, 0.0831835622468 17.7007669905 Z" stroke="black" stroke-width="1" transform="translate(0.5, 0.5)"/>
    <path fill="#FFB6C1" d="M19.5,19.5 L0.0831835622468,17.7007669905 A19.5,19.5 0, 0,1, 9.23457282389 2.92076585327 Z" stroke="black" stroke-width="1" transform="translate(0.5, 0.5)"/>
    <path fill="#ADD8E6" d="M19.5,19.5 L9.23457282389,2.92076585327 A19.5,19.5 0, 0,1, 19.5 0.0 Z" stroke="black" stroke-width="1" transform="translate(0.5, 0.5)"/>
</svg>