<?xml version='1.0' encoding='utf-8'?>
<svg version="1.1" id="Layer_1" xmlns="http://www.w3.org/2000/svg" x="0px" y="0px"
     width="40px" height="40px" viewBox="0 0 40 40"
     enable-background="new 0 0 40 40">
    <path fill="#0000FF" d="M19.5,19.5 L19.5,0.0 A19.5,19.5 0, 0,1, 34.7457139081 7.34194886375 Z" stroke="black" stroke-width="1" transform="translate(0.5, 0.5)"/>
    <path fill="#FFB6C1" d="M19.5,19.5 L34.7457139081,7.34194886375 A19.5,19.5 0, 0,1, 38.5110942875 23.8391582121 Z" stroke="black" stroke-width="1" transform="translate(0.5, 0.5)"/>
    <path fill="#ADD8E6" d="M19.5,19.5 L38.5110942875,23.8391582121 A19.5,19.5 0, 0,1, 27.9607329128 37.0688929241 Z" stroke="black" stroke-width="1" transform="translate(0.5, 0.5)"/>
    <path fill="#000000" d="M19.5,19.5 L27.9607329128,37.0688929241 A19.5,19.5 0, 0,1, 11.0392670872 37.0688929241 Z" stroke="black" stroke-width="1" transform="translate(0.5, 0.5)"/>
    <path fill="#FFFF00" d="M19.5,19.5 L11.0392670872,37.0688929241 A19.5,19.5 0, 0,1, 0.488905712454 23.8391582121 Z" stroke="black" stroke-width="1" transform="translate(0.5, 0.5)"/>
    <path fill="#964B00" d="M19.5,19.5 L0.488905712454,23.8391582121 A19.5,19.5 0, 0,1, 4.25428609187 7.34194886375 Z" stroke="black" stroke-width="1" transform="translate(0.5, 0.5)"/>
    <path fill="#800080" d="M19.5,19.5 L4.25428609187,7.34194886375 A19.5,19.5 0, 0,1, 19.5 0.0 Z" stroke="black" stroke-width="1" transform="translate(0.5, 0.5)"/>
</svg>