<?xml version='1.0' encoding='utf-8'?>
<svg version="1.1" id="Layer_1" xmlns="http://www.w3.org/2000/svg" x="0px" y="0px"
     width="40px" height="40px" viewBox="0 0 40 40"
     enable-background="new 0 0 40 40">
    <path fill="#FF0000" d="M19.5,19.5 L19.5,0.0 A19.5,19.5 0, 0,1, 25.3013095502 0.882943103083 Z" stroke="black" stroke-width="1" transform="translate(0.5, 0.5)"/>
    <path fill="#FFB6C1" d="M19.5,19.5 L25.3013095502,0.882943103083 A19.5,19.5 0, 0,1, 27.5030497063 37.2820469968 Z" stroke="black" stroke-width="1" transform="translate(0.5, 0.5)"/>
    <path fill="#ADD8E6" d="M19.5,19.5 L27.5030497063,37.2820469968 A19.5,19.5 0, 0,1, 11.4969502937 37.2820469968 Z" stroke="black" stroke-width="1" transform="translate(0.5, 0.5)"/>
    <path fill="#FFFFFF" d="M19.5,19.5 L11.4969502937,37.2820469968 A19.5,19.5 0, 0,1, 6.5691081643 34.0959595893 Z" stroke="black" stroke-width="1" transform="translate(0.5, 0.5)"/>
    <path fill="#800080" d="M19.5,19.5 L6.5691081643,34.0959595893 A19.5,19.5 0, 0,1, 19.5 0.0 Z" stroke="black" stroke-width="1" transform="translate(0.5, 0.5)"/>
</svg>