<?xml version='1.0' encoding='utf-8'?>
<svg version="1.1" id="Layer_1" xmlns="http://www.w3.org/2000/svg" x="0px" y="0px"
     width="40px" height="40px" viewBox="0 0 40 40"
     enable-background="new 0 0 40 40">
    <path fill="#FF0000" d="M19.5,19.5 L19.5,0.0 A19.5,19.5 0, 0,1, 28.5621018549 2.23360749976 Z" stroke="black" stroke-width="1" transform="translate(0.5, 0.5)"/>
    <path fill="#FFFF00" d="M19.5,19.5 L28.5621018549,2.23360749976 A19.5,19.5 0, 0,1, 37.7328167324 26.4147952973 Z" stroke="black" stroke-width="1" transform="translate(0.5, 0.5)"/>
    <path fill="#000000" d="M19.5,19.5 L37.7328167324,26.4147952973 A19.5,19.5 0, 0,1, 14.8333445464 38.4333654398 Z" stroke="black" stroke-width="1" transform="translate(0.5, 0.5)"/>
    <path fill="#ADD8E6" d="M19.5,19.5 L14.8333445464,38.4333654398 A19.5,19.5 0, 0,1, 0.142176955088 17.149534735 Z" stroke="black" stroke-width="1" transform="translate(0.5, 0.5)"/>
    <path fill="#FF7F00" d="M19.5,19.5 L0.142176955088,17.149534735 A19.5,19.5 0, 0,1, 19.5 0.0 Z" stroke="black" stroke-width="1" transform="translate(0.5, 0.5)"/>
</svg>